<?xml version="1.0" encoding="utf-8"?>
<!-- Generator: Adobe Illustrator 24.0.1, SVG Export Plug-In . SVG Version: 6.00 Build 0)  -->
<svg version="1.1" id="Layer_1" xmlns="http://www.w3.org/2000/svg" xmlns:xlink="http://www.w3.org/1999/xlink" x="0px" y="0px"
	 viewBox="0 0 69.5 25" style="enable-background:new 0 0 69.5 25;" xml:space="preserve">
<style type="text/css">
	.st0{fill-rule:evenodd;clip-rule:evenodd;fill:#A7A9AC;}
</style>
<title>820CE004-0B62-4C20-B53E-42E212AD07BD</title>
<g>
	<path class="st0" d="M28.3,2.4L25,22.6h5.3l3.3-20.1H28.3z M19.1,2.4l-5.4,13.7l-0.6-2.1C12,11.6,9,8,5.4,5.8l5,16.8l5.9,0L25,2.4
		L19.1,2.4z"/>
	<path class="st0" d="M11.2,4.1c-0.3-1.2-1.3-1.6-2.4-1.6H0.1L0,2.8C6.7,4.5,11.2,8.3,13,13L11.2,4.1z M44.7,6.5
		c1.4,0,2.8,0.2,4.1,0.7l0.5,0.2L50,3.3c-1.6-0.6-3.2-0.8-4.9-0.8c-5.4,0-9.1,2.6-9.2,6.4c0,2.8,2.7,4.4,4.8,5.3
		c2.1,1,2.8,1.6,2.8,2.4c0,1.3-1.7,1.9-3.2,1.9c-2.2,0-3.3-0.3-5.1-1l-0.7-0.3l-0.8,4.4c1.3,0.5,3.6,1,6.1,1c5.7,0,9.4-2.6,9.5-6.7
		c0-2.2-1.4-3.9-4.6-5.3c-1.9-0.9-3.1-1.5-3.1-2.4C41.6,7.4,42.6,6.5,44.7,6.5 M57.8,15.4l2.3-5.6c0,0.1,0.5-1.2,0.8-1.9l0.4,1.7
		l1.3,5.8C62.6,15.4,57.8,15.4,57.8,15.4z M64.9,2.4h-4.4c-1.4,0-2.4,0.4-3,1.7l-8.5,18.5h6c0,0,1-2.5,1.2-3l7.4,0
		c0.2,0.7,0.7,3,0.7,3h5.3L64.9,2.4z"/>
</g>
</svg>
