<svg id="Layer_1" data-name="Layer 1" xmlns="http://www.w3.org/2000/svg" xmlns:xlink="http://www.w3.org/1999/xlink" viewBox="0 0 268.92 154.88"><defs><style>.cls-1,.cls-2{fill:#023f88;}.cls-1{clip-rule:evenodd;}.cls-2,.cls-7{fill-rule:evenodd;}.cls-3{clip-path:url(#clip-path);}.cls-4{fill:url(#radial-gradient);}.cls-5{fill:url(#radial-gradient-2);}.cls-6{fill:url(#radial-gradient-3);}.cls-7{fill:#676464;}</style><clipPath id="clip-path" transform="translate(-286.55 -220.7)"><path class="cls-1" d="M379.33,276.9c0-28.77,18.1-50.21,40.43-50.21s40.43,21.44,40.43,50.21-23.46,55.87-40.43,55.87S379.33,305.68,379.33,276.9Z"/></clipPath><radialGradient id="radial-gradient" cx="431.77" cy="250.49" r="51.87" gradientUnits="userSpaceOnUse"><stop offset="0" stop-color="#fff200"/><stop offset="0.08" stop-color="#fd0"/><stop offset="0.18" stop-color="#ffcb05"/><stop offset="0.36" stop-color="#f37021"/><stop offset="1" stop-color="#c4161c"/></radialGradient><radialGradient id="radial-gradient-2" cx="401.76" cy="240.35" r="51.87" xlink:href="#radial-gradient"/><radialGradient id="radial-gradient-3" cx="411.17" cy="278.01" r="63.08" xlink:href="#radial-gradient"/></defs><title>faberge_logo_central_eng</title><path class="cls-2" d="M379.33,276.9c0-28.77,18.1-50.21,40.43-50.21s40.43,21.44,40.43,50.21-23.46,55.87-40.43,55.87S379.33,305.68,379.33,276.9Z" transform="translate(-286.55 -220.7)"/><g class="cls-3"><path class="cls-4" d="M422.51,265.93a21,21,0,1,0,21-21A21,21,0,0,0,422.51,265.93Zm-14.13,0A35.09,35.09,0,1,1,443.47,301,35.09,35.09,0,0,1,408.38,265.93Z" transform="translate(-286.55 -220.7)"/><path class="cls-5" d="M392.49,255.79a21,21,0,1,0,21-21A21,21,0,0,0,392.49,255.79Zm-14.12,0a35.09,35.09,0,1,1,35.08,35.09A35.08,35.08,0,0,1,378.37,255.79Z" transform="translate(-286.55 -220.7)"/><path class="cls-6" d="M399.91,296.79A25.49,25.49,0,1,0,425.4,271.3,25.49,25.49,0,0,0,399.91,296.79Zm-17.18,0a42.68,42.68,0,1,1,42.67,42.67A42.67,42.67,0,0,1,382.73,296.79Z" transform="translate(-286.55 -220.7)"/></g><polygon class="cls-7" points="170.71 133.36 167.88 133.36 160.81 142.08 153.77 133.36 150.91 133.36 150.91 154.59 153.96 154.59 153.96 138.06 154.02 138.06 160.56 146.28 161.06 146.28 167.6 138.06 167.66 138.06 167.66 154.59 170.71 154.59 170.71 133.36"/><path class="cls-7" d="M479.68,354.06h-3.05v12.36a10.81,10.81,0,0,1-.26,2.66,4.09,4.09,0,0,1-1.08,2,5.48,5.48,0,0,1-2,1.22,8.66,8.66,0,0,1-3,.49,6.2,6.2,0,0,1-4.58-1.8,3.7,3.7,0,0,1-1-1.65,10,10,0,0,1-.28-2.71V354.06H461.4v13.2a8.44,8.44,0,0,0,1.3,4.73A7.46,7.46,0,0,0,466,374.7a10.32,10.32,0,0,0,4.29.87q4.74,0,7.08-2.36a8.37,8.37,0,0,0,2.35-6.26Z" transform="translate(-286.55 -220.7)"/><path class="cls-7" d="M494,355.27a9.16,9.16,0,0,0-2.32-1.12,8.08,8.08,0,0,0-2.42-.37,7,7,0,0,0-4.68,1.53,5.29,5.29,0,0,0-1.76,4.13,5,5,0,0,0,1.43,3.52,14.63,14.63,0,0,0,3.16,2.38,22.82,22.82,0,0,1,3.16,2.11,3.53,3.53,0,0,1,1.43,2.71,2.42,2.42,0,0,1-.84,1.78,3.7,3.7,0,0,1-2.61.89,6.13,6.13,0,0,1-3-.79,8.8,8.8,0,0,1-2.6-2.29v3.86a9.55,9.55,0,0,0,2.77,1.48,10.14,10.14,0,0,0,3.18.48,6,6,0,0,0,4.26-1.63,5.63,5.63,0,0,0,1.68-4.13,5.81,5.81,0,0,0-1.43-4,12,12,0,0,0-3.16-2.43,28.58,28.58,0,0,1-3.16-1.93,3.09,3.09,0,0,1-1.43-2.45,2.26,2.26,0,0,1,.94-1.83,4.08,4.08,0,0,1,2.42-.7,6.3,6.3,0,0,1,2.36.47,8.41,8.41,0,0,1,2.63,1.74Z" transform="translate(-286.55 -220.7)"/><polygon class="cls-7" points="223.66 133.36 211.61 133.36 211.61 154.59 223.94 154.59 223.94 151.86 214.66 151.86 214.66 145.25 223.35 145.25 223.35 142.51 214.66 142.51 214.66 136.1 223.66 136.1 223.66 133.36"/><path class="cls-7" d="M531.54,354.06h-3v12.36a11.32,11.32,0,0,1-.26,2.66,4.18,4.18,0,0,1-1.08,2,5.62,5.62,0,0,1-2,1.22,8.66,8.66,0,0,1-3,.49,6.23,6.23,0,0,1-4.58-1.8,3.77,3.77,0,0,1-1-1.65,9.26,9.26,0,0,1-.28-2.71V354.06h-3v13.2a8.44,8.44,0,0,0,1.3,4.73,7.41,7.41,0,0,0,3.26,2.71,10.28,10.28,0,0,0,4.28.87c3.16,0,5.53-.82,7.09-2.36a8.37,8.37,0,0,0,2.35-6.26Z" transform="translate(-286.55 -220.7)"/><polygon class="cls-7" points="268.92 133.36 266.09 133.36 259.02 142.08 251.98 133.36 249.12 133.36 249.12 154.59 252.16 154.59 252.16 138.06 252.23 138.06 258.77 146.28 259.26 146.28 265.81 138.06 265.87 138.06 265.87 154.59 268.92 154.59 268.92 133.36"/><polygon class="cls-7" points="5.29 154.59 5.29 145.88 14.63 145.88 14.63 141.99 5.29 141.99 5.29 137.25 14.63 137.25 14.63 133.36 0 133.36 0 154.59 5.29 154.59"/><path class="cls-7" d="M306.71,375.29l1.59-4.23h9.5l1.74,4.23h5.7l-9.44-21.23h-6.13l-8.56,21.23Zm9.53-7.87H309.7l3.11-8.29Z" transform="translate(-286.55 -220.7)"/><path class="cls-7" d="M338,375.29a9.2,9.2,0,0,0,4.7-1.07,5.46,5.46,0,0,0,2.25-2.46,6.41,6.41,0,0,0,.58-2.69,5.32,5.32,0,0,0-1.14-3.37,6.2,6.2,0,0,0-3.41-2.08,5.49,5.49,0,0,0,2.12-1.78,4.33,4.33,0,0,0,.78-2.46,4.72,4.72,0,0,0-.71-2.43,5.59,5.59,0,0,0-2.28-2,8.83,8.83,0,0,0-4.05-.85h-9.18v21.23ZM333,358h2.77a2.85,2.85,0,0,1,2.08.71,2.1,2.1,0,0,1,.63,1.53,2.17,2.17,0,0,1-.63,1.57,2.82,2.82,0,0,1-2.08.74H333Zm0,8.43h3.71a4,4,0,0,1,2.3.62,2.06,2.06,0,0,1,.9,1.78,2.19,2.19,0,0,1-.86,2,5.47,5.47,0,0,1-3.06.62h-3Z" transform="translate(-286.55 -220.7)"/><polygon class="cls-7" points="77.88 145.59 77.88 141.71 68.2 141.71 68.2 137.25 78.35 137.25 78.35 133.36 62.91 133.36 62.91 154.59 78.57 154.59 78.57 150.71 68.2 150.71 68.2 145.59 77.88 145.59"/><path class="cls-7" d="M374.44,366.67H376a2.91,2.91,0,0,1,2.32,1.22A14.62,14.62,0,0,1,380,371q.81,1.93,1.92,4.25h5.82c-1-2.06-1.76-3.76-2.35-5.1a22.64,22.64,0,0,0-1.66-3.16,4.7,4.7,0,0,0-1.81-1.67q3.65-1.69,3.64-5.2a5.69,5.69,0,0,0-.83-3,6.18,6.18,0,0,0-2.37-2.24,7.89,7.89,0,0,0-3.74-.87h-9.5v21.23h5.29Zm0-8.72h2.68a3.61,3.61,0,0,1,2.26.6,2.14,2.14,0,0,1,.76,1.8,2.17,2.17,0,0,1-.9,1.89,3.48,3.48,0,0,1-2,.54h-2.81Z" transform="translate(-286.55 -220.7)"/><path class="cls-7" d="M401.59,367.91h3.09v2.5a11.63,11.63,0,0,1-1.85.6,7.77,7.77,0,0,1-1.67.14,8.11,8.11,0,0,1-5.33-1.71,5.79,5.79,0,0,1-2-4.55,6.87,6.87,0,0,1,.73-3.13,6.11,6.11,0,0,1,2.47-2.53,9.46,9.46,0,0,1,4.58-1,16.18,16.18,0,0,1,3.94.5,19.65,19.65,0,0,1,4,1.47v-4.64a17.18,17.18,0,0,0-3.79-1.26,22.56,22.56,0,0,0-4.58-.48,15.38,15.38,0,0,0-6.68,1.39A10.71,10.71,0,0,0,390,359a10.66,10.66,0,0,0,0,11.36,11,11,0,0,0,4.45,3.82,15.2,15.2,0,0,0,6.58,1.4,17.25,17.25,0,0,0,3.49-.37,15.91,15.91,0,0,0,3.19-1,7.31,7.31,0,0,0,2.26-1.47V364h-8.38Z" transform="translate(-286.55 -220.7)"/><polygon class="cls-7" points="143.1 145.59 143.1 141.71 133.41 141.71 133.41 137.25 143.57 137.25 143.57 133.36 128.12 133.36 128.12 154.59 143.78 154.59 143.78 150.71 133.41 150.71 133.41 145.59 143.1 145.59"/><polygon class="cls-7" points="130.77 130.54 141.74 130.54 141.74 126.65 130.76 128.15 130.77 130.54"/></svg>