<svg id="Layer_1" data-name="Layer 1" xmlns="http://www.w3.org/2000/svg" xmlns:xlink="http://www.w3.org/1999/xlink" viewBox="0 0 268.92 158.79"><defs><style>.cls-1,.cls-4{fill:#023f88;}.cls-1{clip-rule:evenodd;}.cls-2,.cls-3{fill:#676464;}.cls-2,.cls-4{fill-rule:evenodd;}.cls-5{clip-path:url(#clip-path);}.cls-6{fill:url(#radial-gradient);}.cls-7{fill:url(#radial-gradient-2);}.cls-8{fill:url(#radial-gradient-3);}</style><clipPath id="clip-path" transform="translate(-286.98 -219.28)"><path class="cls-1" d="M381.24,276.94c0-29.52,18.57-51.52,41.48-51.52s41.47,22,41.47,51.52-24.06,57.32-41.47,57.32S381.24,306.46,381.24,276.94Z"/></clipPath><radialGradient id="radial-gradient" cx="435.04" cy="249.85" r="53.21" gradientUnits="userSpaceOnUse"><stop offset="0" stop-color="#fff200"/><stop offset="0.08" stop-color="#fd0"/><stop offset="0.18" stop-color="#ffcb05"/><stop offset="0.36" stop-color="#f37021"/><stop offset="1" stop-color="#c4161c"/></radialGradient><radialGradient id="radial-gradient-2" cx="404.25" cy="239.44" r="53.21" xlink:href="#radial-gradient"/><radialGradient id="radial-gradient-3" cx="413.91" cy="278.08" r="64.72" xlink:href="#radial-gradient"/></defs><title>faberge_logo_central_rus</title><path class="cls-2" d="M400.54,357.79a13,13,0,0,0-5.8,1.22,8.78,8.78,0,0,0-3.67,3.22,8.79,8.79,0,0,0,0,9.17,8.8,8.8,0,0,0,3.67,3.23,13.25,13.25,0,0,0,5.8,1.22h.73v1.91h5.42v-1.91h.74a13.28,13.28,0,0,0,5.8-1.22,8.86,8.86,0,0,0,3.67-3.23,8.79,8.79,0,0,0,0-9.17,8.84,8.84,0,0,0-3.67-3.22,13,13,0,0,0-5.8-1.22h-.74V356h-5.42v1.79Zm7.3,4a4.68,4.68,0,0,1,3.43,1.32,5.13,5.13,0,0,1,1.33,3.7,5.25,5.25,0,0,1-1.33,3.67,4.62,4.62,0,0,1-3.43,1.4h-1.15V361.77Zm-7.72,10.09a4.62,4.62,0,0,1-3.42-1.4,5.25,5.25,0,0,1-1.34-3.67,5.14,5.14,0,0,1,1.34-3.7,4.67,4.67,0,0,1,3.42-1.32h1.15v10.09Z" transform="translate(-286.98 -219.28)"/><path class="cls-2" d="M426.61,356l-8.78,21.76h5.75l1.63-4.3h9.73l1.79,4.3h5.84L432.9,356Zm0,13.66,3.19-8.46,3.51,8.46Z" transform="translate(-286.98 -219.28)"/><path class="cls-2" d="M445,356v21.76h10.6a8.93,8.93,0,0,0,4.87-1.21,6.31,6.31,0,0,0,2.38-2.75,7.15,7.15,0,0,0,.63-2.9,6.5,6.5,0,0,0-.85-3.22,6.7,6.7,0,0,0-2.71-2.58,10.14,10.14,0,0,0-4.77-1.06h-4.72V360h11.2v-4Zm9.23,12a4,4,0,0,1,2.47.8,2.56,2.56,0,0,1,1,2,2.51,2.51,0,0,1-1,2.18,5.59,5.59,0,0,1-3.25.76h-3.06V368Z" transform="translate(-286.98 -219.28)"/><polygon class="cls-2" points="185.8 154.5 185.8 149.26 195.73 149.26 195.73 145.28 185.8 145.28 185.8 140.71 196.21 140.71 196.21 136.72 180.38 136.72 180.38 158.49 196.43 158.49 196.43 154.5 185.8 154.5"/><path class="cls-2" d="M487.76,377.76h5.42V369h4.31a8,8,0,0,0,4.09-1,6.19,6.19,0,0,0,2.34-2.49,6.53,6.53,0,0,0,.75-3.07,6.3,6.3,0,0,0-.76-3,6.22,6.22,0,0,0-2.37-2.44,7.89,7.89,0,0,0-4.08-1h-9.7ZM495.1,360a6,6,0,0,1,3.1.57,2.09,2.09,0,0,1,.89,2,2.21,2.21,0,0,1-.76,1.87,4.14,4.14,0,0,1-2.62.65h-2.53v-5Z" transform="translate(-286.98 -219.28)"/><polygon class="cls-2" points="258.29 154.5 258.29 149.26 268.21 149.26 268.21 145.28 258.29 145.28 258.29 140.71 268.69 140.71 268.69 136.72 252.86 136.72 252.86 158.49 268.92 158.49 268.92 154.5 258.29 154.5"/><path class="cls-3" d="M528.62,366.22c.31.14.69.32,1,.5a7.28,7.28,0,0,1,2.52,2.06,17.29,17.29,0,0,1,2,3.24l2.81,5.75h-6l-2.24-4.85a9.29,9.29,0,0,0-2.34-3.33,4.38,4.38,0,0,0-2.83-1.08h-.31v9.26h-5.42l0-9.26h-.32a4.36,4.36,0,0,0-2.82,1.08,9.3,9.3,0,0,0-2.35,3.33L510,377.77h-6l2.81-5.75a17.29,17.29,0,0,1,2-3.24,7.28,7.28,0,0,1,2.52-2.06c.32-.18.69-.36,1-.5L505.23,356h6l6.57,9.86,0-9.86h5.42v9.86l6.57-9.86h6Z" transform="translate(-286.98 -219.28)"/><polygon class="cls-2" points="20.3 136.74 17.4 136.74 10.15 145.67 2.93 136.74 0 136.74 0 158.5 3.12 158.5 3.12 141.55 3.19 141.55 9.89 149.98 10.4 149.98 17.11 141.55 17.17 141.55 17.17 158.5 20.3 158.5 20.3 136.74"/><path class="cls-2" d="M332.72,368h3a5.63,5.63,0,0,1,3.67,1,3.3,3.3,0,0,1,1.09,2.68,3.06,3.06,0,0,1-1.47,2.56,6.52,6.52,0,0,1-3.67,1,13.27,13.27,0,0,1-3.43-.41,14.88,14.88,0,0,1-3.34-1.31v3.06a15.94,15.94,0,0,0,6.83,1.47,9.74,9.74,0,0,0,6.05-1.77,5.83,5.83,0,0,0,2.25-4.74,4.9,4.9,0,0,0-1.28-3.34,6.21,6.21,0,0,0-3.25-1.83,6.3,6.3,0,0,0,2.85-1.73,4.61,4.61,0,0,0,1-3.13,5.12,5.12,0,0,0-2.08-4.19,8.79,8.79,0,0,0-5.45-1.61,13.1,13.1,0,0,0-3.43.44,13.66,13.66,0,0,0-2.6,1v2.93a16.94,16.94,0,0,1,2.76-1.13,8.65,8.65,0,0,1,2.47-.4,6.57,6.57,0,0,1,4,.94,3,3,0,0,1,1.15,2.61,2.59,2.59,0,0,1-1.35,2.32,8.2,8.2,0,0,1-4.11.84h-1.63Z" transform="translate(-286.98 -219.28)"/><polygon class="cls-2" points="72.6 136.74 60.25 136.74 60.25 158.5 72.89 158.5 72.89 155.69 63.38 155.69 63.38 148.93 72.28 148.93 72.28 146.12 63.38 146.12 63.38 139.54 72.6 139.54 72.6 136.74"/><path class="cls-2" d="M363.21,377.78h2.62l13.92-16.95v16.95h3.12V356h-2.61L366.34,372.9V356h-3.13Zm15.29-27a5.44,5.44,0,0,1-1.86,3.1,6.26,6.26,0,0,1-7.45,0,5.44,5.44,0,0,1-1.86-3.1H370a2.71,2.71,0,0,0,1,1.43,3.43,3.43,0,0,0,1.89.45,3.51,3.51,0,0,0,1.91-.45,2.75,2.75,0,0,0,1-1.43Z" transform="translate(-286.98 -219.28)"/><polygon class="cls-2" points="25.81 136.73 22.59 136.73 30.79 151.74 27.37 158.5 30.56 158.5 41.16 136.73 38.07 136.73 32.26 148.73 25.81 136.73"/><path class="cls-4" d="M381.24,276.94c0-29.52,18.57-51.52,41.48-51.52s41.47,22,41.47,51.52-24.06,57.32-41.47,57.32S381.24,306.46,381.24,276.94Z" transform="translate(-286.98 -219.28)"/><g class="cls-5"><path class="cls-6" d="M425.54,265.69A21.5,21.5,0,1,0,447,244.18,21.51,21.51,0,0,0,425.54,265.69Zm-14.5,0a36,36,0,1,1,36,36A36,36,0,0,1,411,265.69Z" transform="translate(-286.98 -219.28)"/><path class="cls-7" d="M394.75,255.28a21.5,21.5,0,1,0,21.5-21.5A21.5,21.5,0,0,0,394.75,255.28Zm-14.5,0a36,36,0,1,1,36,36A36,36,0,0,1,380.25,255.28Z" transform="translate(-286.98 -219.28)"/><path class="cls-8" d="M402.35,297.34a26.16,26.16,0,1,0,26.15-26.15A26.16,26.16,0,0,0,402.35,297.34Zm-17.63,0a43.79,43.79,0,1,1,43.78,43.79A43.78,43.78,0,0,1,384.72,297.34Z" transform="translate(-286.98 -219.28)"/></g></svg>