<?xml version="1.0" encoding="utf-8"?>
<!-- Generator: Adobe Illustrator 24.0.1, SVG Export Plug-In . SVG Version: 6.00 Build 0)  -->
<svg version="1.1" id="Layer_1" xmlns="http://www.w3.org/2000/svg" xmlns:xlink="http://www.w3.org/1999/xlink" x="0px" y="0px"
	 viewBox="0 0 40.8 25" style="enable-background:new 0 0 40.8 25;" xml:space="preserve">
<style type="text/css">
	.st0{fill-rule:evenodd;clip-rule:evenodd;fill:#A7A9AC;}
</style>
<title>82674145-793B-405B-B16D-85FA402EFC3E</title>
<path class="st0" d="M34.5,12c-0.9-0.3-1,1.5-1.4,3.7h-1.3l0.8-5.2h1.2l-0.1,0.7c0,0,0.4-0.8,1-0.8c0.2,0,0.3,0,0.3,0
	C34.8,10.8,34.7,11.2,34.5,12z M29.7,14.7c-0.4,0-0.5-0.3-0.5-0.5c0-0.4,0.2-0.8,1.1-0.8c0.2,0,0.2,0,0.3,0
	C30.7,13.6,30.5,14.7,29.7,14.7L29.7,14.7z M30.4,10.4c-0.9,0-1.6,0.3-1.6,0.3l-0.2,1.1c0,0,0.6-0.2,1.4-0.2c0.5,0,0.8,0.1,0.8,0.5
	c0,0.2,0,0.3,0,0.3s-0.4,0-0.6,0c-1.1,0-2.3,0.5-2.3,2c0,1.2,0.8,1.4,1.3,1.4c0.9,0,1.3-0.6,1.3-0.6l0,0.5h1.1l0.5-3.7
	C32.1,10.5,30.8,10.4,30.4,10.4L30.4,10.4z M39.5,15.2C39.5,15.2,39.5,15.2,39.5,15.2C39.5,15.2,39.5,15.2,39.5,15.2
	c0,0.1-0.1,0.1-0.1,0.1h-0.1v-0.1L39.5,15.2C39.4,15.1,39.4,15.2,39.5,15.2C39.5,15.2,39.5,15.2,39.5,15.2L39.5,15.2z M39.2,15.1
	v0.4h0.1v-0.2h0c0,0,0,0,0.1,0c0,0,0.1,0.1,0.1,0.1l0,0.1h0.1l-0.1-0.1c0,0,0-0.1-0.1-0.1c0,0,0,0,0,0c0,0,0.1,0,0.1,0
	c0,0,0-0.1,0-0.1c0,0,0-0.1-0.1-0.1c0,0-0.1,0-0.1,0C39.4,15.1,39.2,15.1,39.2,15.1z M40.8,12.5c0,6.9-5.5,12.5-12.2,12.5
	c-3,0-6-1.2-8.2-3.2c-2.2,2.1-5.1,3.2-8.2,3.2C5.5,25,0,19.4,0,12.5C0,5.6,5.4,0,12.1,0h0.1c3.1,0,6,1.2,8.2,3.2
	C22.6,1.2,25.5,0,28.6,0C35.3,0,40.8,5.6,40.8,12.5L40.8,12.5z M39.9,19.6c-0.1,0.2-0.3,0.3-0.5,0.2c0,0,0,0,0,0
	c-0.2-0.1-0.3-0.4-0.1-0.6c0-0.1,0.1-0.1,0.1-0.1c0.1,0,0.1-0.1,0.2-0.1c0.1,0,0.1,0,0.2,0.1c0.1,0,0.1,0.1,0.1,0.1
	C40,19.4,40,19.5,39.9,19.6z M39.5,19.4L39.5,19.4l-0.1-0.1h0.1c0,0,0.1,0,0.1,0c0,0,0,0,0,0c0,0,0,0,0,0
	C39.6,19.4,39.6,19.4,39.5,19.4C39.6,19.4,39.6,19.4,39.5,19.4z M39.6,19.5C39.6,19.5,39.6,19.5,39.6,19.5
	C39.6,19.5,39.7,19.5,39.6,19.5c0.1-0.1,0.1-0.1,0.1-0.1c0,0,0-0.1-0.1-0.1c0,0-0.1,0-0.1,0h-0.1v0.4h0.1v-0.2h0
	C39.5,19.5,39.5,19.5,39.6,19.5c-0.1,0,0,0.1,0,0.1l0,0.1h0.1L39.6,19.5C39.7,19.5,39.7,19.5,39.6,19.5L39.6,19.5z M37.5,12.8
	c0,0.7-0.3,1.6-1,1.6c-0.5,0-0.7-0.4-0.7-1c0-1,0.5-1.7,1-1.7C37.3,11.7,37.5,12.1,37.5,12.8z M34.4,13.6c0,1.1,0.5,2.2,1.6,2.2
	c0.8,0,1.2-0.6,1.2-0.6l-0.1,0.5h1.3l1-6.3l-1.3,0l-0.3,1.8c0,0-0.5-0.7-1.3-0.7C35.4,10.4,34.4,11.9,34.4,13.6L34.4,13.6z
	 M39.7,15.1c0.1,0.1,0.1,0.2,0,0.3c-0.1,0.1-0.2,0.2-0.3,0.2c-0.1,0-0.2-0.1-0.3-0.2c0-0.1,0-0.1,0-0.2c0-0.1,0-0.1,0-0.2
	c0-0.1,0.1-0.1,0.1-0.1c0.1-0.1,0.2-0.1,0.3,0C39.6,15,39.7,15.1,39.7,15.1z M39.2,14.9c-0.2,0.1-0.3,0.4-0.1,0.6
	c0.1,0.1,0.2,0.2,0.3,0.2c0.1,0,0.3-0.1,0.3-0.2c0.1-0.2,0-0.4-0.1-0.6C39.5,14.9,39.3,14.9,39.2,14.9z M26.5,14.5
	c0.4,0,1.1-0.3,1.1-0.3l-0.2,1.5c0,0-0.7,0.2-1.1,0.2c-1.6,0-2.3-1.1-2.3-2.8c0-2.5,1.5-3.8,3-3.8c0.7,0,1.5,0.3,1.5,0.3l-0.2,1.4
	c0,0-0.5-0.4-1.2-0.4c-0.9,0-1.7,0.9-1.7,2.4C25.2,13.8,25.6,14.5,26.5,14.5L26.5,14.5z M24.1,10.5c-0.2,0.4-0.3,0.7-0.5,1.5
	c-0.9-0.3-1,1.5-1.4,3.7h-1.3l0.8-5.2H23l-0.1,0.7c0,0,0.4-0.8,1-0.8C23.9,10.5,24,10.5,24.1,10.5z M22.6,19.1h-4.3
	c-0.3-0.4-0.5-0.9-0.7-1.3h5.8C23.1,18.2,22.8,18.7,22.6,19.1z M20.4,21.8c-0.5-0.4-0.9-0.9-1.2-1.4h2.5
	C21.3,20.9,20.9,21.3,20.4,21.8L20.4,21.8L20.4,21.8L20.4,21.8z M22.5,5.9h-4.1C18.7,5.4,19,5,19.3,4.5h2.3
	C21.9,4.9,22.3,5.4,22.5,5.9z M23.8,8.5H17c0.1-0.1,0.3-0.7,0.7-1.3h5.6C23.5,7.6,23.6,8.1,23.8,8.5L23.8,8.5z M7.3,9.3l-1,6.3H5
	l0.7-4.8l-1.7,4.8H3.2L3,10.9l-0.8,4.8H1l1-6.3h1.9L4,13.2l1.3-3.9H7.3z M19.1,11.6c0.7,0,0.6,0.8,0.6,0.9h-1.4
	C18.3,12.4,18.4,11.6,19.1,11.6L19.1,11.6z M20.8,13.5c0,0,0.2-0.9,0.2-1.2c0-0.9-0.4-1.9-1.9-1.9c-1.3,0-2.3,1.4-2.3,3.1
	c0,1.9,1.2,2.3,2.2,2.3c1,0,1.4-0.2,1.4-0.2l0.2-1.3c0,0-0.7,0.3-1.4,0.3c-1.4,0-1.2-1.1-1.2-1.1L20.8,13.5L20.8,13.5z M15.8,14.1
	c0,0.2,0,0.4,0.5,0.4c0.1,0,0.2,0,0.3,0l-0.2,1.1c-0.1,0-0.5,0.2-1,0.2c-0.6,0-1-0.3-1-1.1c0-0.5,0.7-4.9,0.8-4.9h1.3l-0.1,0.8H17
	l-0.2,1.3h-0.7C16.2,11.8,15.8,14.1,15.8,14.1z M12.7,12.1c0,0.7,1.5,0.3,1.5,2c0,1.8-1.7,1.7-2,1.7c-1.1,0-1.4-0.2-1.5-0.2l0.2-1.2
	c0,0,0.5,0.2,1.2,0.2c0.4,0,0.8,0,0.8-0.5c0-0.6-1.6-0.5-1.6-2c0-1.3,1-1.7,1.9-1.7c0.7,0,1.2,0.1,1.2,0.1l-0.2,1.2
	c0,0-0.7-0.1-0.9-0.1C13,11.6,12.7,11.7,12.7,12.1z M8.6,14.7c-0.4,0-0.5-0.3-0.5-0.5c0-0.4,0.2-0.8,1.1-0.8c0.2,0,0.2,0,0.3,0
	C9.6,13.6,9.4,14.7,8.6,14.7z M9.3,10.4c-0.9,0-1.6,0.3-1.6,0.3l-0.2,1.1c0,0,0.6-0.2,1.4-0.2c0.5,0,0.8,0.1,0.8,0.5
	c0,0.2,0,0.3,0,0.3s-0.4,0-0.6,0c-1.1,0-2.3,0.5-2.3,2c0,1.2,0.8,1.4,1.3,1.4c0.9,0,1.3-0.6,1.3-0.6l0,0.5h1.1l0.5-3.7
	C11.1,10.5,9.7,10.4,9.3,10.4L9.3,10.4z"/>
</svg>
