<?xml version="1.0" encoding="utf-8"?>
<!-- Generator: Adobe Illustrator 24.0.1, SVG Export Plug-In . SVG Version: 6.00 Build 0)  -->
<svg version="1.1" id="Layer_1" xmlns="http://www.w3.org/2000/svg" xmlns:xlink="http://www.w3.org/1999/xlink" x="0px" y="0px"
	 viewBox="0 0 61.6 25" style="enable-background:new 0 0 61.6 25;" xml:space="preserve">
<style type="text/css">
	.st0{fill:#A7A9AC;}
</style>
<g id="Sdelat-pozhertvovanie">
	<g id="card_2-copy" transform="translate(-134.000000, -1094.000000)">
		<g id="info" transform="translate(20.000000, 1045.000000)">
			<g id="Apple_Pay_Mark_RGB_041619" transform="translate(105.000000, 37.000000)">
				<g id="Group" transform="translate(9.674699, 12.584906)">
					<g id="Path">
						<path class="st0" d="M10.6,2.7c0.7-0.9,1.1-2,1-3.3c-1,0-2.3,0.7-3,1.6C8,1.7,7.4,2.9,7.5,4C8.6,4.2,9.9,3.5,10.6,2.7"/>
						<path class="st0" d="M11.6,4.3c-1.7-0.1-3,1-3.8,1s-2-0.9-3.4-0.9c-1.7,0-3.4,1-4.2,2.5c-1.8,3-0.5,7.7,1.2,10.1
							c0.9,1.2,1.9,2.6,3.3,2.6c1.2,0,1.8-0.8,3.4-0.8s2,0.8,3.4,0.8s2.3-1.2,3.2-2.5c1-1.4,1.4-2.8,1.4-2.8s-2.7-1-2.7-4.1
							c0-2.6,2.1-3.7,2.3-3.8C14.2,4.6,12.2,4.4,11.6,4.3"/>
					</g>
					<g transform="translate(17.590361, 0.867925)">
						<path id="Shape" class="st0" d="M10.6,0c3.6,0,6.2,2.5,6.2,6.1s-2.6,6.1-6.3,6.1H6.5v6.3H3.5V0H10.6L10.6,0z M6.5,9.8h3.4
							c2.6,0,3.9-1.4,3.9-3.7s-1.5-3.7-3.9-3.7H6.5C6.5,2.3,6.5,9.8,6.5,9.8z"/>
						<path id="Shape_1_" class="st0" d="M17.5,14.6c0-2.4,1.8-3.8,5.1-3.9l3.7-0.2v-1c0-1.5-1-2.4-2.7-2.4c-1.6,0-2.6,0.8-2.9,2H18
							c0.1-2.5,2.3-4.3,5.6-4.3c3.3,0,5.4,1.7,5.4,4.4v9.4h-2.7v-2.3h-0.1c-0.8,1.5-2.5,2.5-4.3,2.5C19.4,18.8,17.5,17.1,17.5,14.6z
							 M26.4,13.5v-1L23,12.7c-1.7,0.1-2.6,0.9-2.6,2s1,1.9,2.5,1.9C24.8,16.6,26.4,15.2,26.4,13.5z"/>
						<path id="Path_1_" class="st0" d="M31.7,23.5v-2.3c0.2,0,0.7,0,0.9,0c1.4,0,2-0.6,2.5-1.9l0.2-0.8l-5-13.5h3l3.5,11.1l0,0
							l3.5-11.1h2.9l-5.1,14.2c-1.1,3.3-2.5,4.3-5.4,4.3C32.6,23.5,31.9,23.5,31.7,23.5z"/>
					</g>
				</g>
			</g>
		</g>
	</g>
</g>
</svg>
