<?xml version="1.0" encoding="utf-8"?>
<!-- Generator: Adobe Illustrator 24.0.1, SVG Export Plug-In . SVG Version: 6.00 Build 0)  -->
<svg version="1.1" id="Layer_1" xmlns="http://www.w3.org/2000/svg" xmlns:xlink="http://www.w3.org/1999/xlink" x="0px" y="0px"
	 viewBox="0 0 60.9 25" style="enable-background:new 0 0 60.9 25;" xml:space="preserve">
<style type="text/css">
	.st0{fill:#A7A9AC;}
</style>
<title>google-pay-mark_800_gray</title>
<desc>Created with Sketch.</desc>
<g id="Sdelat-pozhertvovanie">
	<g id="card_2-copy" transform="translate(-207.000000, -1095.000000)">
		<g id="info" transform="translate(20.000000, 1045.000000)">
			<g id="google-pay-mark_800_gray" transform="translate(179.000000, 37.000000)">
				<g id="GPay-logo" transform="translate(8.375081, 13.018868)">
					<g id="Pay" transform="translate(24.660242, 1.289488)">
						<path id="Shape" class="st0" d="M2.7,10.9v7.4H0.4V0.1h6.1c1.5,0,2.9,0.6,4,1.6c2.1,2,2.2,5.2,0.2,7.4
							c-0.1,0.1-0.1,0.2-0.2,0.3c-1.1,1-2.5,1.6-4,1.6H2.7V10.9z M2.7,2.4v6.3h3.9c0.9,0,1.7-0.3,2.3-0.9c1.2-1.2,1.2-3.2-0.1-4.5
							C8.2,2.7,7.4,2.4,6.6,2.4H2.7z"/>
						<path id="Shape_1_" class="st0" d="M17.6,5.5c1.7,0,3.1,0.4,4,1.3S23,9,23,10.6v7.6h-2.2v-1.7h-0.1c-1,1.5-2.2,2.1-3.8,2.1
							c-1.3,0-2.5-0.4-3.5-1.2c-0.9-0.8-1.5-1.9-1.3-3c0-1.2,0.4-2.3,1.5-3c1-0.8,2.2-1.1,3.9-1.1c1.3,0,2.5,0.2,3.3,0.8v-0.7
							c0-0.8-0.3-1.6-1-2c-0.7-0.6-1.5-0.9-2.2-0.9c-1.3,0-2.3,0.6-3.1,1.7l-1.9-1.3C13.6,6.3,15.3,5.5,17.6,5.5z M14.5,14.4
							c0,0.6,0.3,1.1,0.8,1.6c0.6,0.4,1.1,0.7,1.8,0.6c1,0,1.9-0.3,2.6-1.1c0.8-0.7,1.1-1.6,1.1-2.6c-0.7-0.6-1.7-0.9-3-0.9
							c-0.9,0-1.7,0.2-2.3,0.7C14.9,13.2,14.5,13.8,14.5,14.4z"/>
						<polygon id="Path" class="st0" points="35.9,5.8 28.1,23.7 25.7,23.7 28.6,17.4 23.5,5.8 26,5.8 29.6,14.8 29.7,14.8 
							33.3,5.8 						"/>
					</g>
					<g id="Super-G">
						<path id="Path_1_" class="st0" d="M20,10.7c0-0.7-0.1-1.5-0.2-2.1h-9.7v4h5.6c-0.2,1.2-1,2.5-2.1,3.1v2.6h3.3
							C18.9,16.5,20,14,20,10.7z"/>
						<path id="Path_2_" class="st0" d="M10,20.7c2.8,0,5.1-0.9,6.9-2.5l-3.3-2.6c-0.9,0.7-2.1,1-3.6,1c-2.7,0-5-1.8-5.8-4.2H0.7
							v2.7C2.5,18.5,6.1,20.7,10,20.7z"/>
						<path id="Path_3_" class="st0" d="M4.2,12.4c-0.4-1.2-0.4-2.7,0-4V5.7H0.7c-1.5,2.9-1.5,6.4,0,9.3L4.2,12.4z"/>
						<path id="Path_4_" class="st0" d="M10,4.1c1.5,0,2.9,0.6,4,1.6l3-3C15.1,1,12.5,0,10,0C6.1,0,2.5,2.2,0.7,5.7l3.5,2.7
							C5,5.9,7.3,4.1,10,4.1z"/>
					</g>
				</g>
			</g>
		</g>
	</g>
</g>
</svg>
