<?xml version="1.0" encoding="utf-8"?>
<!-- Generator: Adobe Illustrator 24.0.1, SVG Export Plug-In . SVG Version: 6.00 Build 0)  -->
<svg version="1.1" id="Layer_1" xmlns="http://www.w3.org/2000/svg" xmlns:xlink="http://www.w3.org/1999/xlink" x="0px" y="0px"
	 viewBox="0 0 69.6 25" style="enable-background:new 0 0 69.6 25;" xml:space="preserve">
<style type="text/css">
	.st0{fill-rule:evenodd;clip-rule:evenodd;fill:#A7A9AC;}
</style>
<title>mir-logo-h14px</title>
<path class="st0" d="M62.4,2.5H49.1c0.7,4.4,5,8.6,9.8,8.6h10.6c0.1-0.4,0.1-1,0.1-1.4C69.6,5.6,66.4,2.5,62.4,2.5z M50.2,11.8v10.8
	h6.5v-5.7h5.7c3.2,0,5.9-2.2,6.7-5H50.2z M27.3,2.5v20.1H33c0,0,1.4,0,2.2-1.4l5-10h0.7v11.5h6.5V2.5h-5.7c0,0-1.4,0.1-2.2,1.4
	l-5,10h-0.7V2.5H27.3z M0,22.5V2.5h6.5c0,0,1.9,0,2.9,2.9c2.6,7.6,2.9,8.6,2.9,8.6s0.6-1.9,2.9-8.6c1-2.9,2.9-2.9,2.9-2.9h6.5v20.1
	h-6.5V11.8h-0.7l-3.6,10.8h-2.9L7.2,11.8H6.5v10.8H0z"/>
</svg>
